Genre:Drama
Language:English  http://www.imdb.com/title/tt1121977/
Source:DVD9 RUS

General
Complete name :Mother and Child 2009 R5 H264 Feel-Free
Format : MPEG-4
Format profile : Base Media
Codec ID : isom
File size : 1.60 GiB
Duration : 2h 6mn
Overall bit rate : 1 817 Kbps
Video #1
ID : 1
Format : AVC
Format/Info : Advanced Video Codec
Format profile : Main@L4.0
Format settings, CABAC : No
Format settings, ReFrames : 2 frames
Codec ID : avc1
Codec ID/Info : Advanced Video Coding
Duration : 2h 6mn
Bit rate mode : Variable
Bit rate : 1 495 Kbps
Width : 720 pixels
Height : 304 pixels
Display aspect ratio : 2.35:1
Frame rate mode : Constant
Frame rate : 29.970 fps
Resolution : 24 bits
Colorimetry : 4:2:0
Scan type : Progressive
Bits/(Pixel*Frame) : 0.228
Stream size : 1.32 GiB (82%)

Audio #2
ID : 2
Format : AAC
Format/Info : Advanced Audio Codec
Format version : Version 4
Format profile : LC
Format settings, SBR : No
Codec ID : 40
Duration : 2h 6mn
Bit rate mode : Variable
Bit rate : 320 Kbps
Channel(s) : 6 channels
Channel positions : Front: L C R, Rear: L R, LFE
Sampling rate : 44.1 KHz
Resolution : 16 bits
Stream size : 286 MiB (17%)

Plot
A drama centered around three women: A 50-year-old woman, the daughter she gave up for adoption 35 years ago, and an African American woman looking to adopt a child of her own.